<?xml version="1.0" encoding="UTF-8" standalone="no" ?>
<!DOCTYPE svg PUBLIC "-//W3C//DTD SVG 1.1//EN" "http://www.w3.org/Graphics/SVG/1.1/DTD/svg11.dtd">
<svg xmlns="http://www.w3.org/2000/svg" xmlns:xlink="http://www.w3.org/1999/xlink" version="1.1" width="23cm" height="7cm" viewBox="0 0 651.9685 198.4252" xml:space="preserve">
<desc>Created with Fabric.js 5.3.0</desc>
<defs>
</defs>
<g transform="matrix(0.3160882102 0 0 0.3160882102 185.1078467866 134.4264618867)" id="xEQdjzbltSg4KWw3QI-3k"  >
<g style=""   >
		<g transform="matrix(1 0 0 1 -10.905 -108.955)" id="koG4wJahffUAdP0n2S3B7"  >
<linearGradient id="SVGID_0" gradientUnits="userSpaceOnUse" gradientTransform="matrix(1 0 0 1 0 0)"  x1="547.5627" y1="523.7991" x2="547.5627" y2="86.9413">
<stop offset="0%" style="stop-color:rgb(127,12,29);stop-opacity: 1"/>
<stop offset="16.09%" style="stop-color:rgb(154,23,34);stop-opacity: 1"/>
<stop offset="37.49%" style="stop-color:rgb(183,35,40);stop-opacity: 1"/>
<stop offset="58.8%" style="stop-color:rgb(203,43,45);stop-opacity: 1"/>
<stop offset="79.75999999999999%" style="stop-color:rgb(216,48,47);stop-opacity: 1"/>
<stop offset="100%" style="stop-color:rgb(220,50,48);stop-opacity: 1"/>
</linearGradient>
<path style="stroke: none; stroke-width: 1; stroke-dasharray: none; stroke-linecap: butt; stroke-dashoffset: 0; stroke-linejoin: miter; stroke-miterlimit: 4; fill: url(#SVGID_0); fill-rule: nonzero; opacity: 1;"  transform=" translate(-547.565, -305.37)" d="M 704.21 378.03 C 707.5300000000001 381.34 711.07 384.27 714.71 387.03999999999996 C 745.49 413.05999999999995 785.5400000000001 428.84999999999997 829.33 428.84999999999997 C 907.6400000000001 428.84999999999997 974.1300000000001 378.42999999999995 996.6500000000001 309.05999999999995 C 995.5300000000001 363.7199999999999 974.2200000000001 418.04999999999995 932.6000000000001 459.66999999999996 C 847.2000000000002 545.06 708.1300000000001 545.1899999999999 622.5900000000001 459.94999999999993 L 390.92 232.71 C 387.6 229.4 384.06 226.47 380.42 223.70000000000002 C 349.64 197.68 309.59000000000003 181.89000000000001 265.8 181.89000000000001 C 187.48000000000002 181.89000000000001 121 232.31 98.48000000000002 301.68 C 99.60000000000002 247.02 120.91000000000003 192.69 162.53000000000003 151.07 C 247.93000000000004 65.67999999999999 387 65.55 472.54 150.79 L 704.21 378.03 z" stroke-linecap="round" />
</g>
		<g transform="matrix(1 0 0 1 214.2957426744 -168.8155692434)" id="gtctCfBewXFpk0w6s_gxf"  >
<linearGradient id="SVGID_1" gradientUnits="userSpaceOnUse" gradientTransform="matrix(1 0 0 1 0 0)"  x1="772.7612" y1="405.7194" x2="772.7612" y2="85.312">
<stop offset="0%" style="stop-color:rgb(127,12,29);stop-opacity: 1"/>
<stop offset="16.09%" style="stop-color:rgb(154,23,34);stop-opacity: 1"/>
<stop offset="37.49%" style="stop-color:rgb(183,35,40);stop-opacity: 1"/>
<stop offset="58.8%" style="stop-color:rgb(203,43,45);stop-opacity: 1"/>
<stop offset="79.75999999999999%" style="stop-color:rgb(216,48,47);stop-opacity: 1"/>
<stop offset="100%" style="stop-color:rgb(220,50,48);stop-opacity: 1"/>
</linearGradient>
<path style="stroke: none; stroke-width: 1; stroke-dasharray: none; stroke-linecap: butt; stroke-dashoffset: 0; stroke-linejoin: miter; stroke-miterlimit: 4; fill: url(#SVGID_1); fill-rule: nonzero; opacity: 1;"  transform=" translate(-772.7657426744, -245.5094307566)" d="M 964.83 195.04 C 953.0200000000001 170.93 935.37 149.08999999999997 914.21 131.53 C 830.3000000000001 61.93000000000001 698.49 73.47 622.59 149.1 L 564.61 207.26999999999998 L 647.01 288.06 L 704.21 231.02 C 744.6700000000001 190.71 810.4300000000001 190.77 850.82 231.15 C 891.2700000000001 271.61 891.2700000000001 337.43 850.82 377.89 C 838.19 390.52 823.09 399.2 807.0500000000001 403.94 C 814.34 404.99 821.7400000000001 405.71 829.33 405.71 C 890.3900000000001 405.71 948.07 368.56 971.1300000000001 311.62 C 987.12 272.14 982.47 231.05 964.83 195.04 z" stroke-linecap="round" />
</g>
		<g transform="matrix(1 0 0 1 -236 -49.1801553038)" id="YhiFguuasIkMUYSX48JzC"  >
<linearGradient id="SVGID_2" gradientUnits="userSpaceOnUse" gradientTransform="matrix(1 0 0 1 0 0)"  x1="113.4183" y1="365.1344" x2="531.5159" y2="365.1344">
<stop offset="0%" style="stop-color:rgb(127,12,29);stop-opacity: 1"/>
<stop offset="16.09%" style="stop-color:rgb(154,23,34);stop-opacity: 1"/>
<stop offset="37.49%" style="stop-color:rgb(183,35,40);stop-opacity: 1"/>
<stop offset="58.8%" style="stop-color:rgb(203,43,45);stop-opacity: 1"/>
<stop offset="79.75999999999999%" style="stop-color:rgb(216,48,47);stop-opacity: 1"/>
<stop offset="100%" style="stop-color:rgb(220,50,48);stop-opacity: 1"/>
</linearGradient>
<path style="stroke: none; stroke-width: 1; stroke-dasharray: none; stroke-linecap: butt; stroke-dashoffset: 0; stroke-linejoin: miter; stroke-miterlimit: 4; fill: url(#SVGID_2); fill-rule: nonzero; opacity: 1;"  transform=" translate(-322.47, -365.1448446962)" d="M 448.64 322.6 L 390.91999999999996 379.72 C 350.46 420.03000000000003 284.69999999999993 419.97 244.30999999999995 379.59000000000003 C 203.85999999999996 339.13000000000005 203.85999999999996 273.31000000000006 244.30999999999995 232.85000000000002 C 256.93999999999994 220.22000000000003 272.04999999999995 211.54000000000002 288.0899999999999 206.8 C 280.7999999999999 205.75 273.3999999999999 205.03 265.80999999999995 205.03 C 181.77999999999994 205.03 113.41999999999996 271.63 113.41999999999996 353.5 C 113.41999999999996 410.93 153.28999999999996 461.83 200.09999999999997 491.89 C 285.03999999999996 546.45 401.40999999999997 532.53 472.54999999999995 461.65 L 531.52 403.55999999999995 L 448.64 322.6 z" stroke-linecap="round" />
</g>
</g>
</g>
<g transform="matrix(0.3160882102 0 0 0.3160882102 470.2663818675 134.426461881)" id="vyezycvSCtalzMhaGZOyc"  >
<g style=""   >
		<g transform="matrix(1 0 0 1 -10.905 -108.955)" id="XdpkJE9ljk5sVafGzPUP_"  >
<linearGradient id="SVGID_9" gradientUnits="userSpaceOnUse" gradientTransform="matrix(1 0 0 1 0 0)"  x1="547.5627" y1="523.7991" x2="547.5627" y2="86.9413">
<stop offset="0%" style="stop-color:rgb(127,12,29);stop-opacity: 1"/>
<stop offset="16.09%" style="stop-color:rgb(154,23,34);stop-opacity: 1"/>
<stop offset="37.49%" style="stop-color:rgb(183,35,40);stop-opacity: 1"/>
<stop offset="58.8%" style="stop-color:rgb(203,43,45);stop-opacity: 1"/>
<stop offset="79.75999999999999%" style="stop-color:rgb(216,48,47);stop-opacity: 1"/>
<stop offset="100%" style="stop-color:rgb(220,50,48);stop-opacity: 1"/>
</linearGradient>
<path style="stroke: none; stroke-width: 1; stroke-dasharray: none; stroke-linecap: butt; stroke-dashoffset: 0; stroke-linejoin: miter; stroke-miterlimit: 4; fill: url(#SVGID_9); fill-rule: nonzero; opacity: 1;"  transform=" translate(-547.565, -305.37)" d="M 704.21 378.03 C 707.5300000000001 381.34 711.07 384.27 714.71 387.03999999999996 C 745.49 413.05999999999995 785.5400000000001 428.84999999999997 829.33 428.84999999999997 C 907.6400000000001 428.84999999999997 974.1300000000001 378.42999999999995 996.6500000000001 309.05999999999995 C 995.5300000000001 363.7199999999999 974.2200000000001 418.04999999999995 932.6000000000001 459.66999999999996 C 847.2000000000002 545.06 708.1300000000001 545.1899999999999 622.5900000000001 459.94999999999993 L 390.92 232.71 C 387.6 229.4 384.06 226.47 380.42 223.70000000000002 C 349.64 197.68 309.59000000000003 181.89000000000001 265.8 181.89000000000001 C 187.48000000000002 181.89000000000001 121 232.31 98.48000000000002 301.68 C 99.60000000000002 247.02 120.91000000000003 192.69 162.53000000000003 151.07 C 247.93000000000004 65.67999999999999 387 65.55 472.54 150.79 L 704.21 378.03 z" stroke-linecap="round" />
</g>
		<g transform="matrix(1 0 0 1 214.2957426744 -168.8155692434)" id="LTjCJmG-Ak-BKlw-iyU4h"  >
<linearGradient id="SVGID_10" gradientUnits="userSpaceOnUse" gradientTransform="matrix(1 0 0 1 0 0)"  x1="772.7612" y1="405.7194" x2="772.7612" y2="85.312">
<stop offset="0%" style="stop-color:rgb(127,12,29);stop-opacity: 1"/>
<stop offset="16.09%" style="stop-color:rgb(154,23,34);stop-opacity: 1"/>
<stop offset="37.49%" style="stop-color:rgb(183,35,40);stop-opacity: 1"/>
<stop offset="58.8%" style="stop-color:rgb(203,43,45);stop-opacity: 1"/>
<stop offset="79.75999999999999%" style="stop-color:rgb(216,48,47);stop-opacity: 1"/>
<stop offset="100%" style="stop-color:rgb(220,50,48);stop-opacity: 1"/>
</linearGradient>
<path style="stroke: none; stroke-width: 1; stroke-dasharray: none; stroke-linecap: butt; stroke-dashoffset: 0; stroke-linejoin: miter; stroke-miterlimit: 4; fill: url(#SVGID_10); fill-rule: nonzero; opacity: 1;"  transform=" translate(-772.7657426744, -245.5094307566)" d="M 964.83 195.04 C 953.0200000000001 170.93 935.37 149.08999999999997 914.21 131.53 C 830.3000000000001 61.93000000000001 698.49 73.47 622.59 149.1 L 564.61 207.26999999999998 L 647.01 288.06 L 704.21 231.02 C 744.6700000000001 190.71 810.4300000000001 190.77 850.82 231.15 C 891.2700000000001 271.61 891.2700000000001 337.43 850.82 377.89 C 838.19 390.52 823.09 399.2 807.0500000000001 403.94 C 814.34 404.99 821.7400000000001 405.71 829.33 405.71 C 890.3900000000001 405.71 948.07 368.56 971.1300000000001 311.62 C 987.12 272.14 982.47 231.05 964.83 195.04 z" stroke-linecap="round" />
</g>
		<g transform="matrix(1 0 0 1 -236 -49.1801553038)" id="mv89sZziALXbvdGiHo0QU"  >
<linearGradient id="SVGID_11" gradientUnits="userSpaceOnUse" gradientTransform="matrix(1 0 0 1 0 0)"  x1="113.4183" y1="365.1344" x2="531.5159" y2="365.1344">
<stop offset="0%" style="stop-color:rgb(127,12,29);stop-opacity: 1"/>
<stop offset="16.09%" style="stop-color:rgb(154,23,34);stop-opacity: 1"/>
<stop offset="37.49%" style="stop-color:rgb(183,35,40);stop-opacity: 1"/>
<stop offset="58.8%" style="stop-color:rgb(203,43,45);stop-opacity: 1"/>
<stop offset="79.75999999999999%" style="stop-color:rgb(216,48,47);stop-opacity: 1"/>
<stop offset="100%" style="stop-color:rgb(220,50,48);stop-opacity: 1"/>
</linearGradient>
<path style="stroke: none; stroke-width: 1; stroke-dasharray: none; stroke-linecap: butt; stroke-dashoffset: 0; stroke-linejoin: miter; stroke-miterlimit: 4; fill: url(#SVGID_11); fill-rule: nonzero; opacity: 1;"  transform=" translate(-322.47, -365.1448446962)" d="M 448.64 322.6 L 390.91999999999996 379.72 C 350.46 420.03000000000003 284.69999999999993 419.97 244.30999999999995 379.59000000000003 C 203.85999999999996 339.13000000000005 203.85999999999996 273.31000000000006 244.30999999999995 232.85000000000002 C 256.93999999999994 220.22000000000003 272.04999999999995 211.54000000000002 288.0899999999999 206.8 C 280.7999999999999 205.75 273.3999999999999 205.03 265.80999999999995 205.03 C 181.77999999999994 205.03 113.41999999999996 271.63 113.41999999999996 353.5 C 113.41999999999996 410.93 153.28999999999996 461.83 200.09999999999997 491.89 C 285.03999999999996 546.45 401.40999999999997 532.53 472.54999999999995 461.65 L 531.52 403.55999999999995 L 448.64 322.6 z" stroke-linecap="round" />
</g>
</g>
</g>
<g transform="matrix(0.9258122596 0 0 0.8879915859 323.3274638233 98.7131628378)" id="p7T4jtrZ5gnANh2zsIate"  >
<linearGradient id="SVGID_784" gradientUnits="userSpaceOnUse" gradientTransform="matrix(1 0 0 1 -0.0000036275 -0.0000030018)"  x1="52.08567898286395" y1="47.42894736481342" x2="60.35035560491025" y2="6.157120915786074">
<stop offset="0%" style="stop-color:#165279;stop-opacity: 1"/>
<stop offset="16.09%" style="stop-color:#1C6492;stop-opacity: 1"/>
<stop offset="37.49%" style="stop-color:#278ACC;stop-opacity: 1"/>
<stop offset="58.8%" style="stop-color:#2B97DF;stop-opacity: 1"/>
<stop offset="79.75999999999999%" style="stop-color:#2B98E1;stop-opacity: 1"/>
<stop offset="100%" style="stop-color:#31A8F7;stop-opacity: 1"/>
</linearGradient>
<path style="stroke: none; stroke-width: 1; stroke-dasharray: none; stroke-linecap: butt; stroke-dashoffset: 0; stroke-linejoin: miter; stroke-miterlimit: 4; fill: url(#SVGID_784); fill-rule: nonzero; opacity: 1;"  transform=" translate(-78.5754096615, -33.5622619982)" d="M 107.04912 16.71689 C 107.68151 16.82254 108.34582 16.891939999999998 109.02486 16.94577 C 114.81007000000001 17.5884 122.03653 17.12052 129.65012000000002 15.362779999999999 C 143.26557000000003 12.21941 153.98571 5.911129999999998 156.74518 -0.00001000000000139778 C 157.46132 3.9903499999999985 154.6616 8.767319999999998 148.11886 13.442109999999998 C 134.69366000000002 23.033589999999997 110.51627000000002 28.625259999999997 94.22331000000001 25.90616 L 50.15698000000001 18.80306 C 49.52459000000001 18.697409999999998 48.86028000000001 18.62801 48.18124000000001 18.57418 C 42.39603000000001 17.931549999999998 35.16957000000001 18.39943 27.55598000000001 20.157169999999997 C 13.938790000000008 23.300949999999997 3.220390000000009 29.608819999999998 0.46092000000000866 35.51996 C -0.25521999999999134 31.5296 2.5445000000000086 26.752629999999996 9.087240000000008 22.07784 C 22.51244000000001 12.486359999999998 46.68983000000001 6.894689999999999 62.98279000000001 9.613789999999998 z M 106.69736 32.51917 C 107.32975 32.62482 107.99406 32.69422 108.6731 32.74805 C 114.45831000000001 33.390679999999996 121.68477 32.9228 129.29836 31.16506 C 142.91381 28.02169 153.63395 21.71341 156.39342 15.80227 C 157.10956 19.79263 154.30983999999998 24.5696 147.7671 29.24439 C 134.3419 38.83587 110.16451 44.42754 93.87155 41.708439999999996 L 49.80522 34.60534 C 49.17283 34.49969 48.50852 34.43029 47.82948 34.37646 C 42.04427 33.733830000000005 34.817809999999994 34.20171 27.204219999999996 35.959450000000004 C 13.587029999999995 39.10323 2.868629999999996 45.411100000000005 0.1091599999999957 51.32224000000001 C -0.6069800000000043 47.331880000000005 2.1927399999999957 42.55491000000001 8.735479999999995 37.880120000000005 C 22.160679999999996 28.288640000000004 46.338069999999995 22.696970000000007 62.631029999999996 25.416070000000005 z M 107.3456 48.32145 C 107.97799 48.427099999999996 108.6423 48.4965 109.32134 48.550329999999995 C 115.10655000000001 49.19295999999999 122.33301 48.72508 129.94660000000002 46.96733999999999 C 143.56205000000003 43.823969999999996 154.28219 37.51568999999999 157.04166 31.604549999999993 C 157.7578 35.59490999999999 154.95808 40.37187999999999 148.41534000000001 45.04666999999999 C 134.99014000000003 54.638149999999996 110.81275000000002 60.22981999999999 94.51979000000001 57.51071999999999 L 50.453460000000014 50.407619999999994 C 49.82107000000001 50.30197 49.15676000000001 50.232569999999996 48.47772000000001 50.17874 C 42.69251000000001 49.53611 35.46605000000001 50.003989999999995 27.85246000000001 51.76173 C 14.23527000000001 54.90551 3.5168700000000115 61.21338 0.7574000000000112 67.12452 C 0.04126000000001118 63.13416 2.840980000000011 58.35719 9.383720000000011 53.6824 C 22.80892000000001 44.09092 46.98631000000001 38.49925 63.27927000000001 41.21835 z" stroke-linecap="round" />
</g>
</svg>