<?xml version="1.0" encoding="utf-8"?>
<!-- Generator: Adobe Illustrator 25.4.1, SVG Export Plug-In . SVG Version: 6.00 Build 0)  -->
<svg version="1.1" id="Layer_1" xmlns="http://www.w3.org/2000/svg" xmlns:xlink="http://www.w3.org/1999/xlink" x="0px" y="0px"
	 viewBox="0 0 789.36 298.57" style="enable-background:new 0 0 789.36 298.57;" xml:space="preserve">
<style type="text/css">
	.st0{fill:url(#SVGID_1_);}
	.st1{fill:url(#SVGID_00000066516760706970415380000005265469393323505835_);}
	.st2{fill:url(#SVGID_00000066484441244131690330000017996583519369126573_);}
	.st3{fill:#010101;}
	.st4{fill:url(#SVGID_00000036232828028269589200000012529893248849149104_);}
	.st5{fill:url(#SVGID_00000098915819877375736090000012768572662419229096_);}
	.st6{fill:url(#SVGID_00000182507500911598416050000009935357688503936146_);}
	.st7{fill:url(#SVGID_00000095317504744975751530000010788782000199622785_);}
	.st8{fill:url(#SVGID_00000092437493344386160000000004316537575585908133_);}
	.st9{fill:url(#SVGID_00000000206065640431020250000008882679559327237821_);}
</style>
<g>
	<linearGradient id="SVGID_1_" gradientUnits="userSpaceOnUse" x1="205.1076" y1="204.9357" x2="205.1076" y2="19.6973">
		<stop  offset="0.0889" style="stop-color:#AA1F24"/>
		<stop  offset="0.2141" style="stop-color:#AF2027"/>
		<stop  offset="0.4092" style="stop-color:#BA2331"/>
		<stop  offset="0.6499" style="stop-color:#CD2A42"/>
		<stop  offset="0.9228" style="stop-color:#EE355C"/>
	</linearGradient>
	<path class="st0" d="M271.53,143.13c1.41,1.4,2.91,2.65,4.45,3.82c13.05,11.03,30.04,17.73,48.6,17.73
		c33.21,0,61.4-21.38,70.95-50.79c-0.47,23.18-9.51,46.21-27.16,63.86c-36.21,36.21-95.18,36.26-131.45,0.12l-98.23-96.36
		c-1.41-1.4-2.91-2.65-4.45-3.82c-13.05-11.03-30.04-17.73-48.6-17.73c-33.21,0-61.4,21.38-70.95,50.79
		c0.47-23.18,9.51-46.21,27.16-63.86c36.21-36.21,95.18-36.26,131.45-0.12L271.53,143.13z"/>
	
		<linearGradient id="SVGID_00000029011405994341785590000014287346087496452744_" gradientUnits="userSpaceOnUse" x1="300.5972" y1="154.867" x2="300.5972" y2="19.0064">
		<stop  offset="0" style="stop-color:#AA1F24"/>
		<stop  offset="0.1888" style="stop-color:#AC1F26"/>
		<stop  offset="0.3746" style="stop-color:#B2212B"/>
		<stop  offset="0.5592" style="stop-color:#BC2433"/>
		<stop  offset="0.743" style="stop-color:#CB2941"/>
		<stop  offset="0.9248" style="stop-color:#E03153"/>
		<stop  offset="1" style="stop-color:#EE355C"/>
	</linearGradient>
	<path style="fill:url(#SVGID_00000029011405994341785590000014287346087496452744_);" d="M382.04,65.54
		c-5.01-10.23-12.49-19.49-21.46-26.93c-35.58-29.51-91.47-24.62-123.66,7.45l-24.58,24.67l34.94,34.26l24.26-24.19
		c17.16-17.09,45.04-17.07,62.17,0.06c17.15,17.15,17.15,45.07,0,62.22c-5.35,5.35-11.76,9.04-18.56,11.05
		c3.09,0.44,6.23,0.75,9.45,0.75c25.89,0,50.35-15.75,60.13-39.9C391.49,98.22,389.52,80.8,382.04,65.54z"/>
	
		<linearGradient id="SVGID_00000011009187018791307230000003300455700674537377_" gradientUnits="userSpaceOnUse" x1="21.0197" y1="137.658" x2="198.3033" y2="137.658">
		<stop  offset="0" style="stop-color:#EE355C"/>
		<stop  offset="0.11" style="stop-color:#D92F51"/>
		<stop  offset="0.3671" style="stop-color:#BB253D"/>
		<stop  offset="0.6088" style="stop-color:#A71F2F"/>
		<stop  offset="0.8266" style="stop-color:#9C1C27"/>
		<stop  offset="1" style="stop-color:#981B25"/>
	</linearGradient>
	<path style="fill:url(#SVGID_00000011009187018791307230000003300455700674537377_);" d="M163.16,119.62l-24.47,24.22
		c-17.15,17.09-45.04,17.07-62.17-0.06c-17.15-17.15-17.15-45.07,0-62.22c5.35-5.35,11.76-9.04,18.56-11.05
		c-3.09-0.44-6.23-0.75-9.45-0.75c-35.63,0-64.62,28.24-64.62,62.95c0,24.35,16.91,45.93,36.75,58.68
		c36.02,23.13,85.36,17.23,115.52-12.82l25.01-24.63L163.16,119.62z"/>
</g>
<g>
	<path class="st3" d="M75.03,270.53v7.19h-30v-38.74h29.28v7.19H53.95v8.41h17.99v6.97H53.95v8.97H75.03z"/>
	<path class="st3" d="M117.7,238.98v38.74h-7.36L91.02,254.2v23.52h-8.85v-38.74h7.42l19.26,23.52v-23.52H117.7z"/>
	<path class="st3" d="M126.88,238.98h17.6c12.67,0,21.36,7.64,21.36,19.37c0,11.73-8.69,19.37-21.36,19.37h-17.6V238.98z
		 M144.03,270.36c7.69,0,12.73-4.59,12.73-12.01s-5.04-12.01-12.73-12.01h-8.19v24.02H144.03z"/>
	<path class="st3" d="M172.58,238.98h8.97v31.43h19.43v7.31h-28.39V238.98z"/>
	<path class="st3" d="M236,270.53v7.19h-30v-38.74h29.28v7.19h-20.37v8.41h17.99v6.97h-17.99v8.97H236z"/>
	<path class="st3" d="M240.09,273.91l3.04-6.75c3.27,2.38,8.14,4.04,12.78,4.04c5.31,0,7.47-1.77,7.47-4.15
		c0-7.25-22.52-2.27-22.52-16.66c0-6.59,5.31-12.06,16.33-12.06c4.87,0,9.85,1.16,13.45,3.43l-2.77,6.81
		c-3.6-2.05-7.31-3.04-10.74-3.04c-5.31,0-7.36,1.99-7.36,4.43c0,7.14,22.52,2.21,22.52,16.44c0,6.48-5.37,12.01-16.44,12.01
		C249.72,278.39,243.52,276.56,240.09,273.91z"/>
	<path class="st3" d="M275.4,273.91l3.04-6.75c3.27,2.38,8.14,4.04,12.78,4.04c5.31,0,7.47-1.77,7.47-4.15
		c0-7.25-22.52-2.27-22.52-16.66c0-6.59,5.31-12.06,16.33-12.06c4.87,0,9.85,1.16,13.45,3.43l-2.77,6.81
		c-3.6-2.05-7.31-3.04-10.74-3.04c-5.31,0-7.36,1.99-7.36,4.43c0,7.14,22.52,2.21,22.52,16.44c0,6.48-5.37,12.01-16.44,12.01
		C285.03,278.39,278.83,276.56,275.4,273.91z"/>
	<path class="st3" d="M312.8,258.69h15.66v6.92H312.8V258.69z"/>
	<path class="st3" d="M341.91,246.29h-12.4v-7.3h33.76v7.3h-12.4v31.44h-8.97V246.29z"/>
	<path class="st3" d="M392.77,277.72l-7.47-10.79h-0.44h-7.8v10.79h-8.97v-38.74h16.77c10.35,0,16.82,5.37,16.82,14.06
		c0,5.81-2.93,10.07-7.97,12.23l8.69,12.45H392.77z M384.35,246.29h-7.31v13.5h7.31c5.48,0,8.25-2.55,8.25-6.75
		C392.6,248.78,389.83,246.29,384.35,246.29z"/>
	<path class="st3" d="M434.27,269.42h-17.99l-3.43,8.3h-9.19l17.27-38.74h8.86l17.32,38.74h-9.41L434.27,269.42z M431.45,262.62
		l-6.14-14.83l-6.14,14.83H431.45z"/>
	<path class="st3" d="M486.67,238.98v38.74h-7.36L460,254.2v23.52h-8.85v-38.74h7.42l19.26,23.52v-23.52H486.67z"/>
	<path class="st3" d="M492.81,273.91l3.04-6.75c3.26,2.38,8.14,4.04,12.78,4.04c5.31,0,7.47-1.77,7.47-4.15
		c0-7.25-22.53-2.27-22.53-16.66c0-6.59,5.31-12.06,16.33-12.06c4.87,0,9.85,1.16,13.45,3.43l-2.77,6.81
		c-3.6-2.05-7.31-3.04-10.74-3.04c-5.31,0-7.36,1.99-7.36,4.43c0,7.14,22.53,2.21,22.53,16.44c0,6.48-5.37,12.01-16.44,12.01
		C502.44,278.39,496.24,276.56,492.81,273.91z"/>
	<path class="st3" d="M556.67,269.42h-17.99l-3.43,8.3h-9.19l17.27-38.74h8.85l17.32,38.74h-9.41L556.67,269.42z M553.85,262.62
		l-6.14-14.83l-6.14,14.83H553.85z"/>
	<path class="st3" d="M570.56,258.35c0-11.68,8.97-20.03,21.03-20.03c6.7,0,12.29,2.43,15.94,6.86l-5.76,5.31
		c-2.6-2.99-5.87-4.54-9.74-4.54c-7.25,0-12.4,5.09-12.4,12.4s5.15,12.4,12.4,12.4c3.87,0,7.14-1.55,9.74-4.59l5.76,5.31
		c-3.65,4.48-9.24,6.92-15.99,6.92C579.52,278.39,570.56,270.03,570.56,258.35z"/>
	<path class="st3" d="M621.19,246.29h-12.4v-7.3h33.76v7.3h-12.4v31.44h-8.97V246.29z"/>
	<path class="st3" d="M647.36,238.98h8.97v38.74h-8.97V238.98z"/>
	<path class="st3" d="M663.08,258.35c0-11.51,8.97-20.03,21.2-20.03c12.17,0,21.2,8.47,21.2,20.03c0,11.57-9.02,20.03-21.2,20.03
		C672.04,278.39,663.08,269.87,663.08,258.35z M696.39,258.35c0-7.36-5.2-12.4-12.12-12.4s-12.12,5.04-12.12,12.4
		c0,7.36,5.2,12.4,12.12,12.4S696.39,265.71,696.39,258.35z"/>
	<path class="st3" d="M747.75,238.98v38.74h-7.36l-19.32-23.52v23.52h-8.85v-38.74h7.42l19.26,23.52v-23.52H747.75z"/>
</g>
<g>
	<g>
		
			<linearGradient id="SVGID_00000150821596375534089290000014213442484733504438_" gradientUnits="userSpaceOnUse" x1="586.6989" y1="204.974" x2="586.6989" y2="19.7356">
			<stop  offset="0.0889" style="stop-color:#AA1F24"/>
			<stop  offset="0.2141" style="stop-color:#AF2027"/>
			<stop  offset="0.4092" style="stop-color:#BA2331"/>
			<stop  offset="0.6499" style="stop-color:#CD2A42"/>
			<stop  offset="0.9228" style="stop-color:#EE355C"/>
		</linearGradient>
		<path style="fill:url(#SVGID_00000150821596375534089290000014213442484733504438_);" d="M653.12,143.16
			c1.41,1.4,2.91,2.65,4.45,3.82c13.05,11.03,30.04,17.73,48.6,17.73c33.21,0,61.4-21.38,70.95-50.79
			c-0.47,23.18-9.51,46.21-27.16,63.86c-36.21,36.21-95.18,36.26-131.45,0.12l-98.23-96.36c-1.41-1.4-2.91-2.65-4.45-3.82
			C502.78,66.69,485.79,60,467.23,60c-33.21,0-61.4,21.38-70.95,50.79c0.47-23.18,9.51-46.21,27.16-63.86
			c36.21-36.21,95.18-36.26,131.45-0.12L653.12,143.16z"/>
		
			<linearGradient id="SVGID_00000101086331336120766930000008621708016623986102_" gradientUnits="userSpaceOnUse" x1="682.1885" y1="154.9053" x2="682.1885" y2="19.0448">
			<stop  offset="0" style="stop-color:#AA1F24"/>
			<stop  offset="0.1888" style="stop-color:#AC1F26"/>
			<stop  offset="0.3746" style="stop-color:#B2212B"/>
			<stop  offset="0.5592" style="stop-color:#BC2433"/>
			<stop  offset="0.743" style="stop-color:#CB2941"/>
			<stop  offset="0.9248" style="stop-color:#E03153"/>
			<stop  offset="1" style="stop-color:#EE355C"/>
		</linearGradient>
		<path style="fill:url(#SVGID_00000101086331336120766930000008621708016623986102_);" d="M763.63,65.57
			c-5.01-10.23-12.49-19.49-21.46-26.93c-35.58-29.51-91.47-24.62-123.66,7.45l-24.58,24.67l34.94,34.26l24.26-24.19
			c17.16-17.09,45.04-17.07,62.17,0.06c17.15,17.15,17.15,45.07,0,62.22c-5.35,5.35-11.76,9.04-18.56,11.05
			c3.09,0.44,6.23,0.75,9.45,0.75c25.89,0,50.35-15.75,60.13-39.9C773.08,98.26,771.11,80.84,763.63,65.57z"/>
		
			<linearGradient id="SVGID_00000146481499401249163790000002355741841267835012_" gradientUnits="userSpaceOnUse" x1="402.611" y1="137.6963" x2="579.8946" y2="137.6963">
			<stop  offset="0" style="stop-color:#EE355C"/>
			<stop  offset="0.11" style="stop-color:#D92F51"/>
			<stop  offset="0.3671" style="stop-color:#BB253D"/>
			<stop  offset="0.6088" style="stop-color:#A71F2F"/>
			<stop  offset="0.8266" style="stop-color:#9C1C27"/>
			<stop  offset="1" style="stop-color:#981B25"/>
		</linearGradient>
		<path style="fill:url(#SVGID_00000146481499401249163790000002355741841267835012_);" d="M544.75,119.66l-24.47,24.22
			c-17.15,17.09-45.04,17.07-62.17-0.06c-17.15-17.15-17.15-45.07,0-62.22c5.35-5.35,11.76-9.04,18.56-11.05
			c-3.09-0.44-6.23-0.75-9.45-0.75c-35.63,0-64.62,28.24-64.62,62.95c0,24.35,16.91,45.93,36.75,58.68
			c36.02,23.13,85.36,17.23,115.52-12.82l25.01-24.63L544.75,119.66z"/>
	</g>
</g>
<linearGradient id="SVGID_00000073684420849613238560000015490633974513481865_" gradientUnits="userSpaceOnUse" x1="311.0783" y1="-186.5907" x2="311.0783" y2="-256.3688" gradientTransform="matrix(0.9893 -0.1459 0.1459 0.9893 122.1649 386.4388)">
	<stop  offset="0.0276" style="stop-color:#1F698B"/>
	<stop  offset="0.2263" style="stop-color:#2F7DA0"/>
	<stop  offset="0.5422" style="stop-color:#429DC4"/>
	<stop  offset="0.7847" style="stop-color:#4DB4DF"/>
	<stop  offset="0.9228" style="stop-color:#50BEED"/>
</linearGradient>
<path style="fill:url(#SVGID_00000073684420849613238560000015490633974513481865_);" d="M486.31,105.41
	c9.15,0.94,11.86,4.79,7.91,8.6c-1.99,1.92-5.7,3.76-8.53,4.58c-26.62,7.7-52.99-2.81-76.91-10.65c-10.37-3.4-21-5.89-31.93-7.89
	c-15.59-2.85-31.81-4.6-48.01-2.91c-12.98,1.35-28.26,2.82-36.23,12.95c-6.21,7.9,6.61,15.55,13.84,11.63
	c-9.15-0.94-11.86-4.79-7.91-8.6c1.99-1.92,5.7-3.76,8.53-4.58c26.62-7.7,52.99,2.81,76.91,10.65c10.37,3.4,21,5.89,31.93,7.89
	c15.59,2.85,31.81,4.6,48.01,2.91c12.98-1.35,28.26-2.82,36.23-12.95C506.36,109.14,493.54,101.5,486.31,105.41z"/>
<linearGradient id="SVGID_00000036250983231031724120000012224505182593565321_" gradientUnits="userSpaceOnUse" x1="307.1081" y1="-159.6606" x2="307.1081" y2="-229.4387" gradientTransform="matrix(0.9893 -0.1459 0.1459 0.9893 122.1649 386.4388)">
	<stop  offset="0.0276" style="stop-color:#1F698B"/>
	<stop  offset="0.2263" style="stop-color:#2F7DA0"/>
	<stop  offset="0.5422" style="stop-color:#429DC4"/>
	<stop  offset="0.7847" style="stop-color:#4DB4DF"/>
	<stop  offset="0.9228" style="stop-color:#50BEED"/>
</linearGradient>
<path style="fill:url(#SVGID_00000036250983231031724120000012224505182593565321_);" d="M486.31,132.63
	c9.15,0.94,11.86,4.79,7.91,8.6c-1.99,1.92-5.7,3.76-8.53,4.58c-26.62,7.7-52.99-2.81-76.91-10.65c-10.37-3.4-21-5.89-31.93-7.89
	c-15.59-2.85-31.81-4.6-48.01-2.91c-12.98,1.35-28.26,2.82-36.23,12.95c-6.21,7.9,6.61,15.55,13.84,11.63
	c-9.15-0.94-11.86-4.79-7.91-8.6c1.99-1.92,5.7-3.76,8.53-4.58c26.62-7.7,52.99,2.81,76.91,10.65c10.37,3.4,21,5.89,31.93,7.89
	c15.59,2.85,31.81,4.6,48.01,2.91c12.98-1.35,28.26-2.82,36.23-12.95C506.36,136.36,493.54,128.72,486.31,132.63z"/>
<linearGradient id="SVGID_00000070816638239531875890000006410811640891898294_" gradientUnits="userSpaceOnUse" x1="314.8" y1="-211.8346" x2="314.8" y2="-281.6127" gradientTransform="matrix(0.9893 -0.1459 0.1459 0.9893 122.1649 386.4388)">
	<stop  offset="0.0276" style="stop-color:#1F698B"/>
	<stop  offset="0.2263" style="stop-color:#2F7DA0"/>
	<stop  offset="0.5422" style="stop-color:#429DC4"/>
	<stop  offset="0.7847" style="stop-color:#4DB4DF"/>
	<stop  offset="0.9228" style="stop-color:#50BEED"/>
</linearGradient>
<path style="fill:url(#SVGID_00000070816638239531875890000006410811640891898294_);" d="M486.31,79.89
	c9.15,0.94,11.86,4.79,7.91,8.6c-1.99,1.92-5.7,3.76-8.53,4.58c-26.62,7.7-52.99-2.81-76.91-10.65c-10.37-3.4-21-5.89-31.93-7.89
	c-15.59-2.85-31.81-4.6-48.01-2.91c-12.98,1.35-28.26,2.82-36.23,12.95c-6.21,7.9,6.61,15.55,13.84,11.63
	c-9.15-0.94-11.86-4.79-7.91-8.6c1.99-1.92,5.7-3.76,8.53-4.58c26.62-7.7,52.99,2.81,76.91,10.65c10.37,3.4,21,5.89,31.93,7.89
	c15.59,2.85,31.81,4.6,48.01,2.91c12.98-1.35,28.26-2.82,36.23-12.95C506.36,83.63,493.54,75.98,486.31,79.89z"/>
</svg>
